# xmcd CD database file
#
# Track frame offsets:
#	150
#	21718
#	46835
#	70708
#	94495
#	113441
#	130272
#	158311
#	172252
#	191391
#
# Disc length: 2792 seconds
#
# Revision: 0
# Processed by: cddbd v1.5.1PL0 Copyright (c) Steve Scherf et al.
# Submitted via: CDex 1.51
#
DISCID=7f0ae60a
DTITLE=Black Sabbath - Reincarnation (Disc4)
DYEAR=1900
DGENRE=Heavy Metal
TTITLE0=Can't Get Close Enough (rough mix)
TTITLE1=Dusty Angels (rough mix)
TTITLE2=Illusion Of Power (rough mix)
TTITLE3=Illusion Of Power (rough mix ... more bass)
TTITLE4=Get A Grip (rough mix)
TTITLE5=Guilty As Hell (rough mix)
TTITLE6=Kiss Of Death (rough mix)
TTITLE7=Loser Gets All (rough mix)
TTITLE8=Shakin of the Chains (rough mix)
TTITLE9=Forbidden (rough mix)
EXTD=
EXTT0=
EXTT1=
EXTT2=
EXTT3=
EXTT4=
EXTT5=
EXTT6=
EXTT7=
EXTT8=
EXTT9=
PLAYORDER=
